<?xml version="1.0" encoding="UTF-8" standalone="no"?>
<!-- Created with Inkscape (http://www.inkscape.org/) -->

<svg
   width="500mm"
   height="500mm"
   viewBox="0 0 500 500"
   version="1.1"
   id="svg1"
   xmlns="http://www.w3.org/2000/svg"
   xmlns:svg="http://www.w3.org/2000/svg">
  <defs
     id="defs1">
    <clipPath
       clipPathUnits="userSpaceOnUse"
       id="clipPath31">
      <path
         id="path32"
         style="fill:#ff0000;fill-opacity:1;fill-rule:nonzero;stroke:none;stroke-width:0.264583"
         d="m -121.9679,-260.73177 14.00223,-15.16764 c -0.86112,-9.16769 -1.76521,-18.33099 -2.872,-27.47358 -2.39879,-20.31366 -4.59573,-40.70954 -8.75175,-60.75575 -1.57,-6.68653 -2.99239,-13.46874 -5.74173,-19.79627 -2.47836,-5.70386 -1.41074,-9.99023 1.06358,-12.00598 0.0379,-3.07124 1.24514,-5.2741 2.97629,-6.45647 0.002,-0.54601 0.0262,-1.09175 0.0223,-1.63776 -0.009,-0.98519 -0.0333,-1.97022 -0.057,-2.95513 -0.3462,-14.40641 14.07328,-14.86647 14.65804,-0.71216 1.68336,1.29369 3.21275,3.48324 4.24085,6.724 0.55354,1.74481 1.0764,3.49916 1.60243,5.25251 0.64517,0.42743 1.269686,0.97299 1.859205,1.64743 0.760461,-0.0451 1.534414,-0.0347 2.277198,-0.0555 1.318499,-0.0369 3.111634,1.00811 4.435964,1.84105 2.951273,-0.39226 5.891811,-0.85593 8.842758,-1.25034 0.871603,-0.1563 1.740155,-0.32713 2.606097,-0.50932 l -54.504152,-50.31632 -85.38327,92.48969 z" />
    </clipPath>
  </defs>
  <g
     id="g77"
     style="display:inline;fill:#ffffff">
    <g
       id="g76"
       style="fill:#ffffff">
      <g
         id="g75"
         style="fill:#ffffff">
        <circle
           style="fill:#ffffff;fill-rule:evenodd;stroke-width:0.661456"
           id="circle69"
           r="250"
           cy="250"
           cx="250" />
        <g
           id="g72"
           style="fill:#ffffff">
          <path
             style="fill:#ffffff;fill-rule:evenodd;stroke-width:1.79156"
             d="m 23.479928,739.46586 c 0.63454,-2.70974 3.828564,-15.40741 7.097831,-28.21705 C 102.94525,427.69847 303.58441,193.28308 572.83049,77.711512 c 231.12268,-99.20742 489.72561,-102.229314 724.22861,-8.462943 14.7965,5.916418 44.6392,19.514904 66.3171,30.218856 55.1941,27.253405 97.7079,53.285425 147.3575,90.229905 21.849,16.25789 21.9261,16.34113 17.0199,18.36335 -7.702,3.17452 -1503.155565,536.33196 -1504.357804,536.33196 -0.588268,0 -0.550409,-2.21705 0.08413,-4.92678 z"
             id="path69"
             transform="scale(0.26458333)" />
          <path
             style="fill:#ffffff;fill-opacity:1;fill-rule:evenodd;stroke-width:1.79156"
             d="m 24.198054,741.25741 c 0.0066,-0.73901 3.667726,-15.45219 8.13582,-32.69594 C 101.11218,443.12483 282.57555,220.35289 528.50982,99.435358 628.20202,50.420093 729.24892,20.936607 845.61571,6.9101374 c 33.97064,-4.0947097 153.8321,-4.720894 188.11369,-0.9827497 92.9914,10.1400103 177.4651,30.4618263 257.9844,62.0633023 27.8915,10.946567 108.8131,50.86785 135.4303,66.81217 35.9501,21.53495 97.1954,64.08484 100.9225,70.11543 0.5545,0.89721 -0.398,2.17396 -2.1168,2.83725 -13.9896,5.39885 -1128.53161,402.89445 -1392.10939,496.48859 -59.411006,21.09632 -108.387742,38.35695 -108.83719,38.35695 -0.449447,0 -0.811772,-0.60465 -0.805166,-1.34367 z"
             id="path70"
             transform="scale(0.26458333)" />
          <path
             style="fill:#ffffff;fill-opacity:1;fill-rule:evenodd;stroke-width:1.79156"
             d="M 24.189301,740.36164 C 24.197706,734.5852 41.606203,673.5834 52.181292,642.2738 164.68215,309.19317 455.36134,65.639133 803.51408,12.747738 c 54.1126,-8.2207911 68.95799,-9.1664091 143.3247,-9.1294654 57.08992,0.028361 75.96022,0.6628719 97.63992,3.2831243 87.1933,10.5383531 169.9011,30.8103231 243.652,59.7199601 29.213,11.451197 102.3514,46.820293 130.7132,63.211773 25.8415,14.93483 49.9628,30.60881 77.7337,50.51114 28.1712,20.18925 33.5158,24.98402 30.0257,26.93716 -5.0984,2.85321 -1498.495363,535.31965 -1501.399308,535.31965 -0.559872,0 -1.016483,-1.00775 -1.014691,-2.23944 z"
             id="path71"
             transform="scale(0.26458333)" />
          <path
             style="fill:#ffffff;fill-opacity:1;fill-rule:evenodd;stroke-width:1.79156"
             d="M 7.3325983,1052.8534 C 1.0491047,1021.3173 -0.23856037,905.26517 5.1325681,854.5735 8.6613549,821.2695 19.876776,751.56841 22.057791,749.38738 22.808748,748.63643 362.51519,627.0896 776.96099,479.28332 1191.4068,331.47703 1531.6204,210.11424 1532.9912,209.58822 c 6.0084,-2.30565 81.2563,67.56146 120.6219,111.99657 26.2173,29.59349 76.1254,95.5612 73.9461,97.74058 C 1726.8183,420.0662 40.636744,1046.2843 17.58034,1054.3814 l -9.2930402,3.2635 z"
             id="path72"
             transform="scale(0.26458333)" />
        </g>
        <path
           style="fill:#ffffff;fill-opacity:1;fill-rule:evenodd;stroke-width:2.51999"
           d="m 273.05849,1606.6642 c -38.88428,-39.7005 -78.93632,-88.4716 -107.75076,-131.2073 -22.14074,-32.8377 -46.58011,-72.9569 -45.24159,-74.2678 1.2311,-1.2056 1736.28676,-666.08523 1740.78506,-667.07511 2.7638,-0.60819 5.2533,7.50961 10.571,34.47073 12.23,62.00595 15.806,101.68848 15.9357,176.83328 0.065,37.65291 -0.4489,68.9636 -1.1419,69.5793 -2.5926,2.3034 -1572.23427,626.7792 -1575.4314,626.7792 -1.83462,0 -18.81138,-15.8005 -37.72611,-35.1123 z"
           id="path73"
           transform="scale(0.26458333)" />
        <g
           id="g74"
           style="fill:#ffffff">
          <path
             style="fill:#ffffff;fill-opacity:1;fill-rule:evenodd;stroke-width:2.51999"
             d="m 888.29812,1887.1708 c -203.47826,-14.7133 -386.49829,-86.8717 -542.4313,-213.8618 -16.28412,-13.2616 -29.60749,-25.0197 -29.60749,-26.1291 0,-1.5771 1567.79147,-627.9507 1568.99887,-626.856 0.6383,0.5787 -6.3215,59.0552 -8.9329,75.0543 -31.879,195.3127 -124.804,376.4929 -264.731,516.1584 -72.8666,72.7304 -149.2882,128.1964 -239.4883,173.8179 -133.1094,67.3243 -264.3262,99.8007 -411.98803,101.9678 -31.87794,0.4679 -64.19687,0.3997 -71.81985,-0.1515 z"
             id="path74"
             transform="scale(0.26458333)" />
        </g>
      </g>
    </g>
  </g>
  <g
     id="layer1"
     style="display:inline"
     transform="matrix(0.97297741,0,0,0.97297741,6.3052753,6.3052753)">
    <g
       id="g15">
      <g
         id="g14">
        <circle
           style="fill:#ffffff;fill-rule:evenodd;stroke-width:0.661456"
           id="path1"
           r="250"
           cy="250"
           cx="250" />
        <g
           id="g12">
          <path
             style="fill:#aaeeff;fill-rule:evenodd;stroke-width:1.79156"
             d="m 23.479928,739.46586 c 0.63454,-2.70974 3.828564,-15.40741 7.097831,-28.21705 C 102.94525,427.69847 303.58441,193.28308 572.83049,77.711512 c 231.12268,-99.20742 489.72561,-102.229314 724.22861,-8.462943 14.7965,5.916418 44.6392,19.514904 66.3171,30.218856 55.1941,27.253405 97.7079,53.285425 147.3575,90.229905 21.849,16.25789 21.9261,16.34113 17.0199,18.36335 -7.702,3.17452 -1503.155565,536.33196 -1504.357804,536.33196 -0.588268,0 -0.550409,-2.21705 0.08413,-4.92678 z"
             id="path4"
             transform="scale(0.26458333)" />
          <path
             style="fill:#aaeeff;fill-opacity:1;fill-rule:evenodd;stroke-width:1.79156"
             d="m 24.198054,741.25741 c 0.0066,-0.73901 3.667726,-15.45219 8.13582,-32.69594 C 101.11218,443.12483 282.57555,220.35289 528.50982,99.435358 628.20202,50.420093 729.24892,20.936607 845.61571,6.9101374 c 33.97064,-4.0947097 153.8321,-4.720894 188.11369,-0.9827497 92.9914,10.1400103 177.4651,30.4618263 257.9844,62.0633023 27.8915,10.946567 108.8131,50.86785 135.4303,66.81217 35.9501,21.53495 97.1954,64.08484 100.9225,70.11543 0.5545,0.89721 -0.398,2.17396 -2.1168,2.83725 -13.9896,5.39885 -1128.53161,402.89445 -1392.10939,496.48859 -59.411006,21.09632 -108.387742,38.35695 -108.83719,38.35695 -0.449447,0 -0.811772,-0.60465 -0.805166,-1.34367 z"
             id="path5"
             transform="scale(0.26458333)" />
          <path
             style="fill:#5bcefa;fill-opacity:1;fill-rule:evenodd;stroke-width:1.79156"
             d="M 24.189301,740.36164 C 24.197706,734.5852 41.606203,673.5834 52.181292,642.2738 164.68215,309.19317 455.36134,65.639133 803.51408,12.747738 c 54.1126,-8.2207911 68.95799,-9.1664091 143.3247,-9.1294654 57.08992,0.028361 75.96022,0.6628719 97.63992,3.2831243 87.1933,10.5383531 169.9011,30.8103231 243.652,59.7199601 29.213,11.451197 102.3514,46.820293 130.7132,63.211773 25.8415,14.93483 49.9628,30.60881 77.7337,50.51114 28.1712,20.18925 33.5158,24.98402 30.0257,26.93716 -5.0984,2.85321 -1498.495363,535.31965 -1501.399308,535.31965 -0.559872,0 -1.016483,-1.00775 -1.014691,-2.23944 z"
             id="path6"
             transform="scale(0.26458333)" />
          <path
             style="fill:#f5a9b8;fill-opacity:1;fill-rule:evenodd;stroke-width:1.79156"
             d="M 7.3325983,1052.8534 C 1.0491047,1021.3173 -0.23856037,905.26517 5.1325681,854.5735 8.6613549,821.2695 19.876776,751.56841 22.057791,749.38738 22.808748,748.63643 362.51519,627.0896 776.96099,479.28332 1191.4068,331.47703 1531.6204,210.11424 1532.9912,209.58822 c 6.0084,-2.30565 81.2563,67.56146 120.6219,111.99657 26.2173,29.59349 76.1254,95.5612 73.9461,97.74058 C 1726.8183,420.0662 40.636744,1046.2843 17.58034,1054.3814 l -9.2930402,3.2635 z"
             id="path7"
             transform="scale(0.26458333)" />
        </g>
        <path
           style="fill:#f5a9b8;fill-opacity:1;fill-rule:evenodd;stroke-width:2.51999"
           d="m 273.05849,1606.6642 c -38.88428,-39.7005 -78.93632,-88.4716 -107.75076,-131.2073 -22.14074,-32.8377 -46.58011,-72.9569 -45.24159,-74.2678 1.2311,-1.2056 1736.28676,-666.08523 1740.78506,-667.07511 2.7638,-0.60819 5.2533,7.50961 10.571,34.47073 12.23,62.00595 15.806,101.68848 15.9357,176.83328 0.065,37.65291 -0.4489,68.9636 -1.1419,69.5793 -2.5926,2.3034 -1572.23427,626.7792 -1575.4314,626.7792 -1.83462,0 -18.81138,-15.8005 -37.72611,-35.1123 z"
           id="path10"
           transform="scale(0.26458333)" />
        <g
           id="g13">
          <path
             style="fill:#5bcefa;fill-opacity:1;fill-rule:evenodd;stroke-width:2.51999"
             d="m 888.29812,1887.1708 c -203.47826,-14.7133 -386.49829,-86.8717 -542.4313,-213.8618 -16.28412,-13.2616 -29.60749,-25.0197 -29.60749,-26.1291 0,-1.5771 1567.79147,-627.9507 1568.99887,-626.856 0.6383,0.5787 -6.3215,59.0552 -8.9329,75.0543 -31.879,195.3127 -124.804,376.4929 -264.731,516.1584 -72.8666,72.7304 -149.2882,128.1964 -239.4883,173.8179 -133.1094,67.3243 -264.3262,99.8007 -411.98803,101.9678 -31.87794,0.4679 -64.19687,0.3997 -71.81985,-0.1515 z"
             id="path12"
             transform="scale(0.26458333)" />
        </g>
      </g>
    </g>
  </g>
  <g
     id="g69"
     style="display:inline;fill:#ffffff"
     transform="translate(-6.305275,7.2060285)">
    <g
       id="layer2"
       style="display:inline;fill:#ffffff">
      <g
         id="g188"
         transform="matrix(1.087094,0,0,1,-10.677515,0)"
         style="fill:#ffffff">
        <g
           id="g189"
           transform="matrix(0.99609461,0,0,0.99609461,0.47879121,0.99673344)"
           style="fill:#ffffff">
          <g
             id="g191"
             transform="matrix(1.0352537,-0.04927214,-0.3279634,1.0408728,51.273558,2.1210469)"
             style="fill:#ffffff">
            <g
               id="g200"
               transform="matrix(1.4011577,-0.00706528,0.04728295,1.5526499,-87.755952,-90.154587)"
               style="fill:#ffffff">
              <g
                 id="g57"
                 style="fill:#ffffff"
                 transform="matrix(1.0104057,-0.02300513,0.22934949,0.98207827,-57.904749,46.969129)">
                <path
                   id="path15"
                   clip-path="url(#clipPath31)"
                   style="fill:#ffffff;fill-opacity:1;fill-rule:evenodd;stroke-width:0.134067"
                   transform="matrix(-0.50115105,0.5060234,-0.85879079,-0.01535341,-31.863175,220.03275)"
                   d="m -210.66378,-342.65348 a 87.726982,27.896433 0 0 0 82.02593,18.00436 87.726982,27.896433 0 0 0 87.726941,-27.89631 87.726982,27.896433 0 0 0 -82.376061,-27.79329 c 0.0858,0.20056 0.16232,0.40558 0.25126,0.6047 0.0713,0.14928 0.1498,0.29457 0.2293,0.43955 0.47762,0.87156 0.31652,1.54482 -0.082,1.85481 0.0546,0.0519 0.10552,0.10744 0.15574,0.16347 0.0483,0.0548 0.091,0.11395 0.13736,0.17041 0.0293,0.0352 0.0603,0.0692 0.0919,0.10238 5.7e-4,6.1e-4 3e-4,9.1e-4 0.002,10e-4 l 3.8e-4,3.6e-4 c 0.002,0.001 0.004,0.003 0.004,0.004 0.0637,0.0666 0.0565,0.0556 -0.0524,0.12607 0.1229,0.0698 0.14696,0.17779 0.0897,0.2396 0.009,-1.5e-4 0.021,2.6e-4 0.0296,-8e-5 2.6e-4,2.3e-4 0.002,-3.5e-4 0.004,-5.3e-4 0.0287,-0.007 0.0185,-0.005 0.0461,-0.008 0.0181,-7.2e-4 0.0317,-0.002 0.0466,-0.005 0.0201,-0.007 0.0412,-0.0118 0.0623,-0.0156 0.0176,-0.003 0.0354,-0.005 0.0531,-0.007 0.30881,-0.0308 0.33986,0.28136 0.0307,0.31181 -0.009,10e-4 -0.0181,0.003 -0.0273,0.004 -0.0198,0.003 -0.04,0.0117 -0.0619,0.016 -0.0235,0.004 -0.0476,0.008 -0.0714,0.008 -0.0203,0.005 -0.041,0.009 -0.0621,0.0102 -0.0318,0.001 -0.0636,0.002 -0.0954,5.2e-4 -0.0301,-0.003 -0.0592,-0.007 -0.089,-0.0125 -0.0368,-0.004 -0.0741,-0.009 -0.11006,-0.0179 -0.0273,-0.008 -0.0553,-0.0141 -0.0808,-0.0268 -0.0299,-0.0138 -0.0575,-0.0316 -0.0864,-0.0474 -0.0378,-0.0207 -0.0734,-0.044 -0.1112,-0.0647 -0.0219,-0.0144 -0.0444,-0.0294 -0.0672,-0.0423 -0.0279,-0.0157 -0.0538,-0.0342 -0.0803,-0.0516 -0.005,-0.003 -0.0209,-0.0149 -0.0234,-0.0174 0.004,0.001 -0.0408,-0.017 -0.0395,-0.0196 -0.0235,-0.0148 -0.0458,-0.0309 -0.0681,-0.0474 -0.0256,-0.0182 -0.0511,-0.0367 -0.0737,-0.0589 -0.011,-0.0102 -0.0223,-0.0201 -0.0337,-0.0297 -0.0204,-0.0161 -0.0402,-0.0327 -0.0612,-0.048 -0.0238,-0.0179 -0.0496,-0.0339 -0.0709,-0.055 l -0.0653,-0.0603 -0.0729,-0.0673 -0.0657,-0.0606 -0.0577,-0.0533 -0.0718,-0.0662 -0.052,-0.048 -0.0638,-0.0589 c -0.0182,-0.0168 -0.0369,-0.034 -0.0551,-0.0508 -0.0237,-0.0219 -0.0474,-0.0435 -0.071,-0.0656 -0.0238,-0.0221 -0.0476,-0.0445 -0.0711,-0.067 -0.0265,-0.0258 -0.054,-0.0515 -0.076,-0.0814 -0.0174,-0.0229 -0.0331,-0.0471 -0.0493,-0.0708 l -0.0133,-0.0123 c -0.018,-0.0165 -0.036,-0.0331 -0.0539,-0.0498 -0.0399,-0.0111 -0.0836,-0.0354 -0.12776,-0.0764 -0.0162,-0.0151 -0.008,-0.007 -0.0251,-0.0231 -0.0349,-0.0322 -0.0692,-0.0653 -0.10339,-0.0983 -0.0403,-0.0396 -0.0804,-0.0795 -0.11611,-0.12336 -0.0405,-0.0514 -0.0759,-0.10631 -0.10245,-0.16632 -0.0318,-0.068 -0.0619,-0.13644 -0.0909,-0.20555 -0.0335,-0.0771 -0.0703,-0.15292 -0.10211,-0.2307 -0.0144,-0.0376 -0.0265,-0.0758 -0.04,-0.1136 -0.005,-0.008 -0.009,-0.0149 -0.0137,-0.0225 -0.0225,-0.0345 -0.0436,-0.0703 -0.061,-0.10764 -0.0152,-0.0337 -0.0321,-0.0662 -0.0493,-0.099 -0.0226,-0.0434 -0.0439,-0.0879 -0.0642,-0.13238 -0.0191,-0.0395 -0.0395,-0.0777 -0.0642,-0.11409 l -7.3e-4,3e-5 c -0.0282,-0.0414 -0.0448,-0.0797 -0.0521,-0.11421 -0.003,-0.005 -0.006,-0.01 -0.009,-0.015 -0.0718,-0.14879 -0.14186,-0.29863 -0.22141,-0.44352 -0.0686,-0.12926 -0.13892,-0.25767 -0.20351,-0.38902 -0.0404,-0.0789 -0.0777,-0.15955 -0.12244,-0.2361 -0.002,-0.004 -0.004,-0.008 -0.006,-0.0118 a 87.726982,27.896433 0 0 0 -2.72216,-0.0522 87.726982,27.896433 0 0 0 -87.72694,27.89631 87.726982,27.896433 0 0 0 5.70115,9.89221 z" />
                <path
                   id="path16"
                   style="fill:#ffffff;fill-opacity:1;fill-rule:evenodd;stroke-width:0.165734"
                   d="m 343.58535,152.08487 a 38.778322,10.306318 30.528769 0 0 -22.26995,-3.01839 38.778322,10.306318 30.528769 0 0 17.90622,22.41321 c 0.069,0.0472 0.13797,0.0945 0.2057,0.14276 0.0601,0.042 0.1188,0.0851 0.18066,0.12541 0.04,0.0255 0.0686,0.0508 0.088,0.0732 a 38.778322,10.306318 30.528769 0 0 8.2201,5.36603 38.778322,10.306318 30.528769 0 0 39.73282,11.95425 38.778322,10.306318 30.528769 0 0 -26.60061,-28.12078 38.778322,10.306318 30.528769 0 0 -17.46293,-8.93562 z" />
                <path
                   id="path33"
                   style="fill:#ffffff;fill-opacity:1;fill-rule:evenodd;stroke-width:0.264583"
                   d="m 250.74569,252.24386 a 90.296394,38.174088 -180 0 0 -63.84918,-11.18095 90.296394,38.174088 -180 0 0 -90.296155,38.17441 90.296394,38.174088 -180 0 0 90.296235,38.17367 90.296394,38.174088 -180 0 0 63.56289,-11.06475 c 0.009,-0.007 0.0172,-0.0131 0.027,-0.0194 0.0205,-0.0122 0.0412,-0.0242 0.0634,-0.0328 0.0171,-0.0122 0.0349,-0.0235 0.0542,-0.032 0.0291,-0.0128 0.0586,-0.0248 0.0887,-0.0351 0.0292,-0.008 0.0585,-0.015 0.0881,-0.0209 0.0151,-0.004 0.0303,-0.007 0.0454,-0.011 a 90.296394,38.174088 -180 0 0 26.36659,-26.95775 90.296394,38.174088 -180 0 0 -26.44735,-26.99338 z"
                   transform="rotate(-21.438752)" />
                <ellipse
                   style="fill:#ffffff;fill-opacity:1;fill-rule:evenodd;stroke-width:0.269276"
                   id="path34"
                   cx="218.03276"
                   cy="192.72194"
                   rx="95.435211"
                   ry="47.334332" />
                <ellipse
                   style="fill:#ffffff;fill-opacity:1;fill-rule:evenodd;stroke-width:0.290061"
                   id="path35"
                   cx="216.9472"
                   cy="201.13754"
                   rx="108.64931"
                   ry="43.862137"
                   transform="rotate(-5.1680939)" />
                <ellipse
                   style="fill:#ffffff;fill-opacity:1;fill-rule:evenodd;stroke-width:0.35471"
                   id="path36"
                   cx="-20.543402"
                   cy="341.30542"
                   rx="27.096382"
                   ry="6.5014243"
                   transform="matrix(0.50697913,-0.86195833,0.91807668,0.39640283,0,0)" />
                <ellipse
                   style="fill:#ffffff;fill-opacity:1;fill-rule:evenodd;stroke-width:0.409748"
                   id="path53"
                   cx="311.75296"
                   cy="196.05681"
                   rx="20.536083"
                   ry="74.366379"
                   transform="matrix(1,0,-0.54366528,0.83930213,0,0)" />
              </g>
              <ellipse
                 style="fill:#ffffff;fill-opacity:1;fill-rule:evenodd;stroke-width:0.192548"
                 id="path57"
                 cx="197.17085"
                 cy="184.33641"
                 rx="6.8611565"
                 ry="3.3354895"
                 transform="matrix(0.95664021,0.29127222,-0.10764009,0.99418993,0,0)"
                 clip-path="url(#clipPath64)" />
              <path
                 style="fill:#ffffff;fill-opacity:1;fill-rule:evenodd;stroke-width:0.264583"
                 d="m 128.84559,203.64157 c 4.19196,1.15948 11.9243,3.11187 21.63256,5.69353 9.70827,2.58166 21.392,5.79246 33.8788,8.33441 12.48681,2.54195 25.77594,4.41491 40.00198,5.17302 14.22604,0.75812 29.38813,0.40136 43.88173,-0.89192 14.49359,-1.29329 28.31786,-3.52301 38.17347,-6.10956 9.85561,-2.58655 15.74206,-5.52978 14.93878,-4.40278 -0.80328,1.127 -8.29595,6.32396 -19.42818,11.58107 -11.13223,5.25711 -25.90267,10.57372 -41.09265,13.72957 -15.18999,3.15584 -30.79771,4.15055 -45.49713,3.76283 -14.69943,-0.38772 -28.48881,-2.15782 -41.49286,-5.50723 -13.00405,-3.34942 -25.22122,-8.27776 -33.50563,-14.08366 -8.2844,-5.80591 -12.63504,-12.48868 -14.4847,-15.64699 -1.84966,-3.15831 -1.19813,-2.79177 2.99383,-1.63229 z"
                 id="path186"
                 transform="matrix(1.0116337,-0.02303309,0.22962823,0.98327184,-58.122226,46.685979)" />
              <path
                 style="fill:#ffffff;fill-opacity:1;fill-rule:evenodd;stroke-width:0.264583"
                 d="m 141.87835,220.13196 c 1.75932,-0.38561 5.27796,-1.15681 9.08585,-1.63882 3.80788,-0.48201 7.90485,-0.67481 11.25482,-0.6266 3.34996,0.0482 5.95273,0.3374 8.24228,0.84351 2.28955,0.50611 4.26573,1.2291 5.42255,1.90392 1.15681,0.67481 1.49421,1.30141 0.96399,2.14493 -0.53022,0.84352 -1.92801,1.90391 -4.45857,3.37405 -2.53057,1.47013 -6.19374,3.34992 -8.26606,4.26024 -2.07232,0.91033 -2.55368,0.85117 -3.61959,0.52627 -1.06592,-0.32489 -2.71626,-0.91548 -4.74103,-1.77763 -2.02478,-0.86214 -4.42379,-1.99576 -6.70724,-3.16448 -2.28345,-1.16872 -4.45114,-2.37244 -5.92191,-3.21111 -1.47077,-0.83867 -2.24443,-1.31217 -2.63061,-1.6261 -0.38619,-0.31393 -0.38485,-0.46825 -0.38419,-0.54542 6.7e-4,-0.0772 3.9e-4,-0.0772 1.75971,-0.46276 z"
                 id="path187"
                 transform="matrix(1.0116337,-0.02303309,0.22962823,0.98327184,-58.122226,46.685979)" />
              <path
                 style="fill:#ffffff;fill-opacity:1;fill-rule:evenodd;stroke-width:0.264583"
                 d="m 255.49473,222.68297 c 1.2352,3.07214 2.94546,6.30264 5.63758,9.75488 2.69212,3.45224 6.36596,7.12608 11.08508,10.54664 4.71912,3.42056 10.48326,6.58767 15.4874,8.61465 5.00414,2.02699 9.24806,2.91378 12.63695,3.35718 3.38889,0.4434 5.92257,0.4434 6.74602,-0.91851 0.82346,-1.3619 -0.0633,-4.0856 -2.3754,-6.65103 -2.31208,-2.56543 -6.04924,-4.97241 -8.45629,-7.75954 -2.40705,-2.78713 -3.48386,-5.95423 -4.1173,-9.18477 -0.63344,-3.23053 -0.82347,-6.52431 -0.85514,-8.58297 -0.0317,-2.05866 0.095,-2.88211 1.837,-5.70093 1.74196,-2.81882 5.09907,-7.6328 -1.36209,-8.36122 -6.46117,-0.72841 -22.74003,2.62871 -30.49956,5.76422 -7.75954,3.13552 -6.99944,6.04925 -5.76425,9.1214 z"
                 id="path188"
                 transform="matrix(1.0116337,-0.02303309,0.22962823,0.98327184,-58.122226,46.685979)" />
              <path
                 style="fill:#ffffff;fill-opacity:1;fill-rule:evenodd;stroke:#000000;stroke-width:0.412091;stroke-dasharray:none;stroke-opacity:1"
                 d="m 135.97955,260.24676 c 0.54147,0.23808 1.62435,0.71419 2.41138,1.0486 0.78703,0.33442 1.27804,0.52706 1.34394,0.1359 0.0659,-0.39115 -0.29336,-1.36609 -0.36517,-1.88482 -0.0718,-0.51873 0.14382,-0.58126 0.65957,-0.26669 0.51574,0.31457 1.33157,1.00619 1.97289,1.49113 0.64133,0.48494 1.1081,0.76314 1.31233,0.60994 0.20424,-0.15321 0.14595,-0.7378 0.10662,-1.33971 -0.0393,-0.6019 -0.0597,-1.22107 0.0438,-1.54346 0.10348,-0.32239 0.3308,-0.34799 0.80551,0.01 0.47471,0.35797 1.19676,1.09945 1.71857,1.57873 0.52182,0.47928 0.84334,0.69632 1.04712,0.51595 0.20377,-0.18038 0.28981,-0.75817 0.32509,-1.2838 0.0353,-0.52564 0.0198,-0.99911 0.15989,-1.24704 0.14008,-0.24793 0.43569,-0.27029 0.93364,0.0806 0.49795,0.35088 1.1982,1.07496 1.76538,1.5382 0.56718,0.46324 1.00125,0.66561 1.20774,0.20262 0.20649,-0.46299 0.18539,-1.59131 0.38557,-2.12732 0.20018,-0.53601 0.62162,-0.47969 1.09174,-0.0574 0.47011,0.42229 0.98888,1.21051 1.44193,1.63198 0.45304,0.42147 0.84033,0.47617 0.98437,0.0284 0.14405,-0.44777 0.0448,-1.39796 0.0806,-1.86903 0.0358,-0.47106 0.20649,-0.463 0.58587,-0.009 0.37938,0.45435 0.96737,1.35494 1.35844,1.84621 0.39107,0.49127 0.58519,0.57319 0.72386,0.16154 0.13866,-0.41166 0.22187,-1.31684 0.34884,-1.76541 0.12697,-0.44857 0.2977,-0.44051 0.49135,-0.41316 0.19365,0.0273 0.41021,0.074 0.74913,0.45366 0.33891,0.37971 0.80015,1.09248 1.19074,1.52917 0.3906,0.4367 0.71055,0.59731 0.80969,0.22015 0.0991,-0.37716 -0.0225,-1.29204 0.0874,-1.74141 0.1099,-0.44936 0.45135,-0.4332 0.73621,-0.38335 0.28486,0.0498 0.51314,0.1334 0.75008,0.56282 0.23694,0.42943 0.48255,1.20472 0.69704,1.66945 0.21449,0.46473 0.39786,0.61887 0.52577,0.27944 0.12791,-0.33943 0.20036,-1.1724 0.37317,-1.58242 0.17282,-0.41003 0.44598,-0.39709 0.68547,-0.3312 0.23949,0.0659 0.44531,0.18473 0.68716,0.52347 0.24185,0.33875 0.51971,0.89737 0.78987,1.21927 0.27015,0.3219 0.53255,0.40705 0.75262,0.19927 0.22006,-0.20778 0.39777,-0.70848 0.61785,-0.91625 0.22007,-0.20778 0.48247,-0.12263 0.71262,0.17919 0.23015,0.30183 0.42803,0.82031 0.63574,1.15743 0.2077,0.33713 0.4252,0.49287 0.61159,0.33806 0.18639,-0.15482 0.34166,-0.62023 0.36222,-0.87382 0.0206,-0.25359 -0.0935,-0.29535 -1.13153,-0.59905 -1.03798,-0.3037 -2.99971,-0.8693 -4.6357,-1.25586 -1.636,-0.38655 -2.94615,-0.59403 -4.15859,-0.6522 -1.21244,-0.0582 -2.32707,0.0329 -3.62418,0.0261 -1.29711,-0.007 -2.77653,-0.11168 -4.28947,-0.10978 -1.51293,0.002 -3.05928,0.11052 -4.49739,0.24246 -1.4381,0.13194 -2.76787,0.28718 -4.75582,0.64765 -1.98794,0.36048 -4.63392,0.92616 -6.10427,1.27477 -1.47036,0.3486 -1.76503,0.48011 -1.91237,0.54586 -0.14734,0.0658 -0.14733,0.0658 0.39415,0.30387 z"
                 id="path193"
                 transform="matrix(1.0572671,-0.0073978,0.04950826,1.2158892,-22.142318,-54.801337)" />
              <path
                 style="fill:#ffffff;fill-opacity:1;fill-rule:evenodd;stroke:#000000;stroke-width:0.467299;stroke-dasharray:none;stroke-opacity:1"
                 d="m 157.51901,269.87124 c -0.0371,-0.24793 -0.11144,-0.74379 -0.11132,-1.13541 1.2e-4,-0.39161 0.0747,-0.67903 0.32653,-0.70066 0.25187,-0.0216 0.68105,0.22246 1.05469,0.51988 0.37365,0.29742 0.69173,0.64816 0.95915,0.80628 0.26742,0.15812 0.48417,0.12363 0.71173,0.12321 0.22756,-4.1e-4 0.46586,0.0332 0.35401,-0.3525 -0.11186,-0.38574 -0.5739,-1.19087 -0.77757,-1.67047 -0.20367,-0.4796 -0.14899,-0.63367 0.2091,-0.516 0.35809,0.11766 1.01957,0.50703 1.52649,0.83314 0.50692,0.32612 0.85925,0.58896 1.16754,0.61474 0.30829,0.0258 0.57251,-0.1855 0.41085,-0.66312 -0.16166,-0.47762 -0.74919,-1.22154 -0.91356,-1.60975 -0.16438,-0.38822 0.0944,-0.42072 0.54849,-0.13066 0.45411,0.29005 1.10351,0.90263 1.64467,1.14084 0.54117,0.23822 0.97407,0.10207 0.98081,-0.334 0.007,-0.43608 -0.41269,-1.17204 -0.58816,-1.62793 -0.17547,-0.45588 -0.10697,-0.63168 0.13468,-0.62024 0.24165,0.0114 0.65644,0.2101 1.04002,0.44086 0.38357,0.23076 0.73589,0.4936 1.07959,0.56582 0.3437,0.0722 0.67874,-0.0462 0.63324,-0.45117 -0.0455,-0.40498 -0.47155,-1.0965 -0.69625,-1.5771 -0.22469,-0.48059 -0.24803,-0.75026 0.12115,-0.56493 0.36918,0.18533 1.13084,0.8256 1.77016,1.07965 0.63933,0.25406 1.15629,0.12188 1.04054,-0.30881 -0.11575,-0.43068 -0.86417,-1.15984 -1.20414,-1.61232 -0.33997,-0.45249 -0.27147,-0.62828 0.18506,-0.4612 0.45654,0.16708 1.3011,0.67702 1.91193,0.87378 0.61082,0.19675 0.98789,0.0803 0.63054,0.45505 -0.35735,0.37472 -1.44908,1.24055 -2.64261,2.07922 -1.19352,0.83866 -2.48876,1.65011 -3.63479,2.31199 -1.14603,0.66188 -2.14279,1.17417 -3.15038,1.65238 -1.00759,0.47821 -2.02594,0.92232 -2.80859,1.09788 -0.78265,0.17555 -1.32955,0.0825 -1.603,0.036 -0.27346,-0.0465 -0.27345,-0.0465 -0.3106,-0.29447 z"
                 id="path195"
                 transform="translate(0.27374645,0.08009514)" />
              <path
                 style="fill:#ffffff;fill-opacity:1;fill-rule:evenodd;stroke:#000000;stroke-width:1.8692;stroke-dasharray:none;stroke-opacity:1"
                 d="m 135.27181,260.46948 c 0.17446,-0.46555 1.39903,-0.89106 2.96265,-1.29085 1.56362,-0.3998 3.46623,-0.77387 5.59924,-1.09836 2.13302,-0.32449 4.4963,-0.59939 6.56103,-0.7724 2.06474,-0.17301 3.83081,-0.24412 5.92479,-0.18367 2.09398,0.0604 4.51575,0.25243 6.41745,0.46816 1.9017,0.21573 3.28323,0.45518 4.64478,0.82906 1.36156,0.37389 2.70305,0.88218 3.49048,1.33525 0.78744,0.45306 1.02079,0.85088 1.11459,1.20343 0.0938,0.35255 0.0481,0.65979 -0.37989,1.20038 -0.42795,0.54059 -1.23807,1.31447 -2.12134,2.02688 -0.88328,0.71242 -1.83965,1.36335 -2.72442,1.90164 -0.88477,0.5383 -1.69788,0.96394 -2.52582,1.42757 -0.82794,0.46364 -1.67065,0.96523 -2.64672,1.44119 -0.97606,0.47595 -2.08543,0.92625 -2.79473,1.11507 -0.7093,0.18882 -1.01848,0.11617 -1.85243,-0.1167 -0.83395,-0.23288 -2.19261,-0.62595 -3.86437,-1.18857 -1.67175,-0.56262 -3.65651,-1.29475 -5.55676,-2.04224 -1.90024,-0.74749 -3.71586,-1.5103 -5.48041,-2.30938 -1.76455,-0.79909 -3.47794,-1.6344 -4.77246,-2.30487 -1.29452,-0.67046 -2.17013,-1.17604 -1.99566,-1.64159 z"
                 id="path196"
                 transform="translate(0.5788923,-0.2286855)" />
              <path
                 id="path197"
                 style="fill:#ffffff;fill-opacity:1;fill-rule:evenodd;stroke:#ffffff;stroke-width:1.8692;stroke-dasharray:none;stroke-opacity:1"
                 d="m 114.68164,237.71289 c -0.94125,0.0856 -2.00287,0.54608 -3.01367,1.39844 -1.45295,1.22521 -1.91849,2.62164 -1.94727,4.09765 -0.0192,0.98341 0.2608,1.83963 0.31836,2.01172 0.43533,1.30161 1.05928,2.18275 1.64844,3.00977 0.65422,0.91833 1.46186,1.90855 2.42578,2.95312 1.92892,2.09031 4.32448,4.23125 6.72266,6.21875 2.40033,1.98926 4.82064,3.82661 7.10547,5.39844 2.2911,1.57614 4.63878,2.98846 8.20117,4.65234 3.55585,1.66086 8.31997,3.60867 12.11133,5.07422 3.79534,1.46712 6.78288,2.49577 11.32226,3.71094 4.53551,1.21413 10.69831,2.65445 16.70117,3.78125 6.00247,1.12673 11.74508,1.92205 16.74024,2.42188 4.99558,0.49986 9.20727,0.69694 12.88086,0.83398 3.67414,0.13707 6.92728,0.2173 9.89648,0.22656 2.97122,0.009 5.65877,-0.0543 9.1211,-0.20508 3.46323,-0.15086 7.75499,-0.39128 11.7246,-0.72851 3.96852,-0.33716 7.53629,-0.76416 10.41016,-1.17578 2.87404,-0.41167 5.08185,-0.81433 7.25977,-1.25781 2.1791,-0.44372 4.33314,-0.92729 5.99414,-1.26172 1.64405,-0.33105 2.82885,-0.4944 3.99804,-0.78907 0.0465,-0.0117 0.80041,-0.1781 1.5625,-0.59375 0.31388,-0.17119 1.24668,-0.74547 1.91993,-1.74218 0.92453,-1.3687 1.15575,-2.68635 0.77148,-4.27344 -0.23975,-0.99015 -0.60731,-1.75509 -1.09766,-2.31055 -0.49034,-0.55546 -1.14742,-0.97856 -0.71484,-0.60547 -0.26345,-0.22721 -0.46888,-0.37682 -0.47656,-0.38281 -0.26759,-0.20871 -0.95324,-0.77729 -1.87305,-1.61328 -0.92123,-0.83732 -2.09584,-1.95492 -3.21484,-3.12891 -1.11591,-1.17071 -2.23184,-2.46891 -2.94336,-3.43554 -0.7163,-0.97313 -1.15461,-1.76481 -1.66406,-2.56446 0.0694,0.10899 -0.13941,-0.36062 -0.56055,-0.8789 -0.42114,-0.51829 -1.05476,-1.02326 -1.89649,-1.44532 -1.18583,-0.59462 -2.13796,-0.65648 -3.07617,-0.55859 -0.28786,0.03 -0.51808,0.0681 -0.70703,0.11133 -0.18717,0.0428 -0.4952,0.12666 -0.19141,0.0527 0.003,-7e-4 -0.005,7.3e-4 -0.002,0 a 2.091821,2.091821 0 0 0 -0.002,0 c -0.16252,0.0396 0.0123,0.0106 -0.28516,0.043 -0.29748,0.0324 -0.91041,0.0832 -2.06445,0.15039 -2.29191,0.13353 -6.54708,0.29708 -11.10156,0.40625 -4.55496,0.10918 -9.43012,0.16614 -14.05469,0.0899 -4.62526,-0.0763 -8.99687,-0.28208 -14.43555,-0.73633 -5.43813,-0.45419 -11.93115,-1.15791 -18.35742,-2.01953 -6.4266,-0.86167 -12.81676,-1.88331 -18.49219,-2.92383 -5.67603,-1.04064 -10.67015,-2.10493 -15.7832,-3.21875 -5.11273,-1.11376 -10.29668,-2.26847 -16.71289,-3.70313 -6.41579,-1.43456 -14.06047,-3.15025 -18.16211,-4.07617 -2.02564,-0.45727 -3.15101,-0.76341 -4.49414,-0.89844 0.16509,0.0166 -0.5722,-0.20066 -1.51172,-0.11523 z" />
              <path
                 id="path199"
                 style="fill:#ffffff;fill-opacity:1;fill-rule:evenodd;stroke:#ffffff;stroke-width:1.8692;stroke-dasharray:none;stroke-opacity:1"
                 d="m 215.02344,136.43164 c -2.89817,-0.3524 -5.83866,0.42394 -8.68164,1.93555 -2.8162,1.49734 -5.61636,3.66522 -8.23828,6.0625 -2.63098,2.40555 -4.99106,5.01278 -7.45899,7.93359 -2.46894,2.92201 -5.14321,6.27542 -7.50391,9.68164 -2.36091,3.40652 -4.29789,6.70955 -5.85937,9.45117 -1.40581,2.46828 -2.45664,4.32885 -3.01367,5.23828 -0.0153,0.004 -0.0134,0.004 -0.0293,0.008 -1.81806,0.41731 -5.35446,1.18103 -8.52539,1.99218 -3.17048,0.81104 -5.91379,1.65554 -8.75781,2.63086 -2.84238,0.97475 -5.88491,2.11038 -9.29688,3.56055 -3.41238,1.45034 -7.18017,3.20802 -10.83203,5.11328 -3.65311,1.90593 -7.15508,3.94453 -10.3125,6.00977 -3.15654,2.06467 -5.97659,4.16152 -8.53906,6.38086 -2.55938,2.21665 -4.85012,4.53097 -6.66797,6.80273 -1.82816,2.28466 -3.10636,4.50447 -4.12891,6.75977 -1.01587,2.2406 -1.93141,4.76059 -2.45507,7.4375 -0.52454,2.68136 -0.60545,5.31973 -0.32813,7.80468 0.2774,2.48557 0.90479,4.70984 1.60156,6.67969 0.69706,1.97059 1.53498,3.89262 2.5625,5.69336 1.02891,1.80317 2.13211,3.28098 2.59571,3.91016 0.15292,0.20752 0.23279,0.37891 0.71484,0.91992 0.003,0.003 0.22766,0.25718 0.48242,0.48047 0.0721,0.0632 0.39021,0.33173 0.76953,0.56055 0.29747,0.17945 0.38706,0.20666 0.53125,0.27343 0.1442,0.0668 0.38256,0.16592 0.38282,0.16602 a 2.076993,2.076993 0 0 0 0.0215,0.008 c 5e-4,1.8e-4 1.88439,0.32422 1.88477,0.32422 1.9e-4,0 1.54085,-0.23823 1.54101,-0.23828 1.6e-4,-5e-5 1.4279,-0.71121 1.49805,-0.7461 0.49997,0.11536 0.90786,0.21147 1.65625,0.37696 1.65524,0.36601 3.60796,0.76485 8.53515,1.85937 4.92763,1.09467 12.83081,2.88539 19.04102,4.27344 6.21038,1.38808 10.75448,2.37823 15.35547,3.28516 4.60146,0.90701 9.21173,1.72055 12.83008,2.32031 3.61832,0.59975 6.26173,0.98802 9.3125,1.41016 3.04952,0.42194 6.56484,0.88736 10.22851,1.31054 3.66353,0.42318 7.43287,0.8002 10.61719,1.09961 3.18466,0.29945 5.92503,0.53373 9.70117,0.67188 3.77513,0.13808 8.5456,0.18406 13.04102,0.16797 4.49559,-0.0161 8.68918,-0.0967 11.83984,-0.17579 3.15132,-0.0791 5.30683,-0.15596 7.11133,-0.30273 0.47442,-0.0386 0.62169,-0.0662 0.92383,-0.0996 0.0608,0.0849 0.0677,0.10595 0.14258,0.20703 0.88134,1.19021 1.9917,2.53892 3.14453,3.8418 1.15365,1.3038 2.31335,2.51598 3.33984,3.51758 1.02646,1.00155 1.88144,1.75178 2.48438,2.28711 0.60402,0.53631 1.14852,1.02754 1.93359,1.6875 0.78676,0.66137 1.88298,1.54771 3.32422,2.5625 1.43971,1.01369 3.15558,2.11282 5.0918,3.27343 1.93536,1.16012 4.12968,2.40596 6.63085,3.6836 2.50066,1.27736 5.24576,2.55829 7.6211,3.58789 2.37889,1.03114 4.43311,1.82283 6.60937,2.5332 2.17293,0.70928 4.46421,1.34305 6.60352,1.82227 2.13966,0.47931 4.06346,0.78467 5.89844,1.02734 1.82595,0.24148 3.68692,0.45566 5.4414,0.45703 1.72072,0.002 3.59753,-0.19005 5.375,-1.24805 2.18477,-1.30038 3.46357,-3.57553 3.38867,-6.14648 -0.0586,-2.01224 -0.82015,-3.50926 -1.39062,-4.51953 -0.63978,-1.13303 -1.37705,-2.07469 -2.08203,-2.88086 -0.70421,-0.80528 -1.465,-1.57608 -2.26172,-2.27539 -0.79824,-0.70064 -1.54122,-1.24505 -2.23047,-1.74024 -0.69515,-0.49942 -1.48373,-1.05235 -2.33984,-1.63281 -0.85626,-0.58055 -1.71036,-1.14031 -2.48438,-1.67773 -0.77266,-0.5365 -1.51283,-1.08058 -2.31836,-1.71094 -0.80399,-0.62916 -1.41101,-1.13792 -2.05273,-1.86523 -0.6255,-0.70893 -1.51376,-1.95098 -2.14844,-2.96485 -0.29116,-0.4651 -0.42397,-0.77394 -0.63867,-1.16406 0.26788,-0.1239 0.33876,-0.15154 0.71875,-0.33008 2.42359,-1.13876 5.09013,-2.56804 7.60156,-4.01953 2.51201,-1.45182 4.92278,-2.95889 7.29492,-4.67383 2.36995,-1.71334 4.54984,-3.51551 7.11328,-5.56836 2.56433,-2.05353 5.67136,-4.49059 8.49219,-6.87304 2.82201,-2.38342 5.31496,-4.68166 7.64258,-7.08399 2.32661,-2.40128 4.47224,-4.87856 6.17969,-7.16211 1.70995,-2.28692 2.9037,-4.30333 3.8457,-6.04492 0.11085,-0.20494 0.14995,-0.30136 0.24024,-0.47461 0.3662,0.14765 0.48882,0.20979 1.10937,0.44727 2.75528,1.0544 6.69477,2.45435 10.80469,3.64257 4.106,1.18709 8.21069,2.13135 11.42578,2.56836 3.23266,0.43942 5.5966,0.31945 7.4707,-0.15625 1.93154,-0.49027 3.60097,-1.44725 4.76953,-2.80664 1.19101,-1.3855 1.77067,-3.03957 1.82813,-4.66992 0.0502,-1.42326 -0.26935,-2.6224 -0.58789,-3.53125 -0.3446,-0.98321 -0.86968,-2.02147 -1.59571,-3.08203 -0.71251,-1.04083 -1.67695,-2.22411 -2.99804,-3.55859 -1.32151,-1.3349 -2.92767,-2.75418 -4.63281,-4.14844 -1.7044,-1.39364 -3.48145,-2.73627 -5.21094,-3.98438 -1.72774,-1.24685 -3.47734,-2.44811 -5.72071,-3.85937 -2.24255,-1.41075 -4.9595,-3.02203 -7.36523,-4.36524 -1.69707,-0.94752 -2.86772,-1.54333 -4.08789,-2.17773 1.00293,-1.42428 2.30505,-3.31289 3.89453,-5.92187 1.59643,-2.62039 3.45468,-5.90445 4.91406,-8.77149 1.4611,-2.87039 2.48585,-5.27237 3.2793,-7.44141 0.79306,-2.16793 1.38306,-4.1705 1.78516,-6.05859 0.40124,-1.88411 0.60967,-3.61221 0.66015,-5.16406 v -0.002 c 0.0506,-1.56204 -0.0706,-2.99193 -0.33203,-4.3086 -0.25481,-1.28314 -0.67709,-2.7772 -1.57226,-4.25976 -0.90142,-1.49292 -2.0623,-2.59127 -3.21289,-3.37696 -1.17976,-0.8056 -2.35847,-1.25861 -3.29297,-1.55664 -1.00683,-0.3211 -2.57834,-0.67702 -4.54688,-0.64258 -1.92039,0.0335 -4.50434,0.39238 -7.79687,1.52149 -3.27725,1.12387 -7.08563,2.89664 -10.44141,4.68555 -3.36318,1.79286 -6.20267,3.59884 -8.92383,5.52539 -2.71916,1.92515 -5.34526,3.98052 -7.65234,5.86718 -2.30645,1.88614 -4.3014,3.60994 -5.88086,5.00586 -1.57846,1.39504 -2.79475,2.50641 -3.87109,3.56836 -0.75606,0.74595 -1.20598,1.22886 -1.66016,1.70313 -0.42231,-0.01 -0.67906,-0.0185 -1.53711,-0.0293 -1.58891,-0.02 -3.38895,0.0374 -4.89648,0.10938 0.034,-0.75754 0.0596,-1.50558 0.0391,-2.1543 -0.026,-0.82409 -0.0944,-1.73741 -0.26953,-2.74024 -0.16576,-0.94882 -0.42892,-2.18043 -1.05664,-3.50976 -0.66541,-1.40917 -1.71616,-2.74363 -3.1836,-3.69141 -0.93645,-0.60482 -2.01739,-0.93453 -3.25976,-1.0664 -1.24238,-0.13188 -2.64757,-0.0344 -4.00196,0.61132 -2.18891,1.04362 -3.49801,2.53574 -4.69531,3.80664 -1.27738,1.35592 -2.62222,2.93008 -3.80664,4.6504 -0.66352,0.96372 -1.01327,1.67876 -1.44336,2.46289 -0.76994,-0.18767 -1.31125,-0.33116 -2.9082,-0.68164 -3.0027,-0.65899 -6.68152,-1.22867 -11.00977,-1.67188 -4.32764,-0.44315 -9.22379,-0.75097 -13.7539,-1.00391 -4.53104,-0.25298 -8.81836,-0.45524 -13.47461,-0.4375 -4.41577,0.0168 -8.89092,0.23622 -12.1543,0.42383 0.1466,-0.55237 0.27858,-0.88681 0.43359,-1.62109 0.67678,-3.20581 1.07441,-6.66723 1.2793,-9.83789 0.20458,-3.16622 0.24491,-6.25575 -0.30859,-9.30469 -0.55139,-3.03716 -1.63501,-5.82419 -3.39844,-8.09961 -1.83814,-2.37183 -4.53521,-4.00697 -7.51367,-4.36914 z m -41.17188,41.02148 a 2.076993,2.076993 0 0 0 0,0.004 c -0.0299,0.0495 -0.0497,0.0756 -0.0918,0.16406 -0.0824,0.1733 0.0566,-0.11086 0.0918,-0.16797 z" />
              <path
                 style="fill:#ffffff;fill-opacity:1;fill-rule:evenodd;stroke:#ffffff;stroke-width:1.8692;stroke-dasharray:none;stroke-opacity:1"
                 d="m 289.2435,263.72195 c -0.17802,-0.3035 -0.46853,-1.16309 -0.7817,-2.15165 -0.31317,-0.98855 -0.64898,-2.10601 -0.87903,-3.09063 -0.23006,-0.98461 -0.35434,-1.83633 -0.3927,-2.35943 -0.0384,-0.52311 0.009,-0.71756 0.37682,-0.9067 0.36763,-0.18915 1.05531,-0.37298 2.10585,-0.58881 1.05053,-0.21583 2.46383,-0.46366 3.78775,-0.7354 1.32392,-0.27175 2.55834,-0.56738 3.81102,-0.89168 1.25268,-0.32429 2.52355,-0.67722 3.72953,-1.06273 1.20599,-0.38551 2.34706,-0.80359 3.77078,-1.27716 1.42372,-0.47356 3.12999,-1.00258 4.44895,-1.49094 1.31896,-0.48836 2.25053,-0.93603 3.21351,-1.31338 0.96297,-0.37734 1.95728,-0.68435 2.50646,-0.87474 0.54918,-0.1904 0.65313,-0.26414 0.66629,-0.16516 0.0132,0.099 -0.0645,0.37069 -0.46993,0.81378 -0.40544,0.44308 -1.13864,1.05751 -2.13473,1.87589 -0.9961,0.81838 -2.25503,1.84068 -3.62508,2.82824 -1.37004,0.98756 -2.8511,1.94031 -4.38449,2.90047 -1.53338,0.96017 -3.11894,1.92765 -4.74808,2.84393 -1.62914,0.91628 -3.30175,1.78129 -4.88282,2.56215 -1.58107,0.78085 -3.07053,1.47751 -4.0235,1.94385 -0.95296,0.46634 -1.3694,0.70234 -1.61039,0.94668 -0.24099,0.24433 -0.3065,0.49692 -0.48451,0.19342 z"
                 id="path200" />
            </g>
          </g>
        </g>
      </g>
    </g>
  </g>
  <g
     id="g65"
     style="display:inline"
     transform="translate(-6.305275,7.2060285)">
    <g
       id="g78">
      <g
         id="g64"
         transform="matrix(1.087094,0,0,1,-10.677515,0)">
        <g
           id="g63"
           transform="matrix(0.99609461,0,0,0.99609461,0.47879121,0.99673344)">
          <g
             id="g62"
             transform="matrix(1.0352537,-0.04927214,-0.3279634,1.0408728,51.273558,2.1210469)">
            <g
               id="g61"
               transform="matrix(1.4011577,-0.00706528,0.04728295,1.5526499,-87.755952,-90.154587)">
              <g
                 id="g50"
                 style="fill:#5599ff"
                 transform="matrix(1.0104057,-0.02300513,0.22934949,0.98207827,-57.904749,46.969129)">
                <path
                   id="path45"
                   clip-path="url(#clipPath31)"
                   style="fill:#5599ff;fill-opacity:1;fill-rule:evenodd;stroke-width:0.134067"
                   transform="matrix(-0.50115105,0.5060234,-0.85879079,-0.01535341,-31.863175,220.03275)"
                   d="m -210.66378,-342.65348 a 87.726982,27.896433 0 0 0 82.02593,18.00436 87.726982,27.896433 0 0 0 87.726941,-27.89631 87.726982,27.896433 0 0 0 -82.376061,-27.79329 c 0.0858,0.20056 0.16232,0.40558 0.25126,0.6047 0.0713,0.14928 0.1498,0.29457 0.2293,0.43955 0.47762,0.87156 0.31652,1.54482 -0.082,1.85481 0.0546,0.0519 0.10552,0.10744 0.15574,0.16347 0.0483,0.0548 0.091,0.11395 0.13736,0.17041 0.0293,0.0352 0.0603,0.0692 0.0919,0.10238 5.7e-4,6.1e-4 3e-4,9.1e-4 0.002,10e-4 l 3.8e-4,3.6e-4 c 0.002,0.001 0.004,0.003 0.004,0.004 0.0637,0.0666 0.0565,0.0556 -0.0524,0.12607 0.1229,0.0698 0.14696,0.17779 0.0897,0.2396 0.009,-1.5e-4 0.021,2.6e-4 0.0296,-8e-5 2.6e-4,2.3e-4 0.002,-3.5e-4 0.004,-5.3e-4 0.0287,-0.007 0.0185,-0.005 0.0461,-0.008 0.0181,-7.2e-4 0.0317,-0.002 0.0466,-0.005 0.0201,-0.007 0.0412,-0.0118 0.0623,-0.0156 0.0176,-0.003 0.0354,-0.005 0.0531,-0.007 0.30881,-0.0308 0.33986,0.28136 0.0307,0.31181 -0.009,10e-4 -0.0181,0.003 -0.0273,0.004 -0.0198,0.003 -0.04,0.0117 -0.0619,0.016 -0.0235,0.004 -0.0476,0.008 -0.0714,0.008 -0.0203,0.005 -0.041,0.009 -0.0621,0.0102 -0.0318,0.001 -0.0636,0.002 -0.0954,5.2e-4 -0.0301,-0.003 -0.0592,-0.007 -0.089,-0.0125 -0.0368,-0.004 -0.0741,-0.009 -0.11006,-0.0179 -0.0273,-0.008 -0.0553,-0.0141 -0.0808,-0.0268 -0.0299,-0.0138 -0.0575,-0.0316 -0.0864,-0.0474 -0.0378,-0.0207 -0.0734,-0.044 -0.1112,-0.0647 -0.0219,-0.0144 -0.0444,-0.0294 -0.0672,-0.0423 -0.0279,-0.0157 -0.0538,-0.0342 -0.0803,-0.0516 -0.005,-0.003 -0.0209,-0.0149 -0.0234,-0.0174 0.004,0.001 -0.0408,-0.017 -0.0395,-0.0196 -0.0235,-0.0148 -0.0458,-0.0309 -0.0681,-0.0474 -0.0256,-0.0182 -0.0511,-0.0367 -0.0737,-0.0589 -0.011,-0.0102 -0.0223,-0.0201 -0.0337,-0.0297 -0.0204,-0.0161 -0.0402,-0.0327 -0.0612,-0.048 -0.0238,-0.0179 -0.0496,-0.0339 -0.0709,-0.055 l -0.0653,-0.0603 -0.0729,-0.0673 -0.0657,-0.0606 -0.0577,-0.0533 -0.0718,-0.0662 -0.052,-0.048 -0.0638,-0.0589 c -0.0182,-0.0168 -0.0369,-0.034 -0.0551,-0.0508 -0.0237,-0.0219 -0.0474,-0.0435 -0.071,-0.0656 -0.0238,-0.0221 -0.0476,-0.0445 -0.0711,-0.067 -0.0265,-0.0258 -0.054,-0.0515 -0.076,-0.0814 -0.0174,-0.0229 -0.0331,-0.0471 -0.0493,-0.0708 l -0.0133,-0.0123 c -0.018,-0.0165 -0.036,-0.0331 -0.0539,-0.0498 -0.0399,-0.0111 -0.0836,-0.0354 -0.12776,-0.0764 -0.0162,-0.0151 -0.008,-0.007 -0.0251,-0.0231 -0.0349,-0.0322 -0.0692,-0.0653 -0.10339,-0.0983 -0.0403,-0.0396 -0.0804,-0.0795 -0.11611,-0.12336 -0.0405,-0.0514 -0.0759,-0.10631 -0.10245,-0.16632 -0.0318,-0.068 -0.0619,-0.13644 -0.0909,-0.20555 -0.0335,-0.0771 -0.0703,-0.15292 -0.10211,-0.2307 -0.0144,-0.0376 -0.0265,-0.0758 -0.04,-0.1136 -0.005,-0.008 -0.009,-0.0149 -0.0137,-0.0225 -0.0225,-0.0345 -0.0436,-0.0703 -0.061,-0.10764 -0.0152,-0.0337 -0.0321,-0.0662 -0.0493,-0.099 -0.0226,-0.0434 -0.0439,-0.0879 -0.0642,-0.13238 -0.0191,-0.0395 -0.0395,-0.0777 -0.0642,-0.11409 l -7.3e-4,3e-5 c -0.0282,-0.0414 -0.0448,-0.0797 -0.0521,-0.11421 -0.003,-0.005 -0.006,-0.01 -0.009,-0.015 -0.0718,-0.14879 -0.14186,-0.29863 -0.22141,-0.44352 -0.0686,-0.12926 -0.13892,-0.25767 -0.20351,-0.38902 -0.0404,-0.0789 -0.0777,-0.15955 -0.12244,-0.2361 -0.002,-0.004 -0.004,-0.008 -0.006,-0.0118 a 87.726982,27.896433 0 0 0 -2.72216,-0.0522 87.726982,27.896433 0 0 0 -87.72694,27.89631 87.726982,27.896433 0 0 0 5.70115,9.89221 z" />
                <path
                   id="path46"
                   style="fill:#5599ff;fill-opacity:1;fill-rule:evenodd;stroke-width:0.165734"
                   d="m 343.58535,152.08487 a 38.778322,10.306318 30.528769 0 0 -22.26995,-3.01839 38.778322,10.306318 30.528769 0 0 17.90622,22.41321 c 0.069,0.0472 0.13797,0.0945 0.2057,0.14276 0.0601,0.042 0.1188,0.0851 0.18066,0.12541 0.04,0.0255 0.0686,0.0508 0.088,0.0732 a 38.778322,10.306318 30.528769 0 0 8.2201,5.36603 38.778322,10.306318 30.528769 0 0 39.73282,11.95425 38.778322,10.306318 30.528769 0 0 -26.60061,-28.12078 38.778322,10.306318 30.528769 0 0 -17.46293,-8.93562 z" />
                <path
                   id="path47"
                   style="fill:#5599ff;fill-opacity:1;fill-rule:evenodd;stroke-width:0.264583"
                   d="m 250.74569,252.24386 a 90.296394,38.174088 -180 0 0 -63.84918,-11.18095 90.296394,38.174088 -180 0 0 -90.296155,38.17441 90.296394,38.174088 -180 0 0 90.296235,38.17367 90.296394,38.174088 -180 0 0 63.56289,-11.06475 c 0.009,-0.007 0.0172,-0.0131 0.027,-0.0194 0.0205,-0.0122 0.0412,-0.0242 0.0634,-0.0328 0.0171,-0.0122 0.0349,-0.0235 0.0542,-0.032 0.0291,-0.0128 0.0586,-0.0248 0.0887,-0.0351 0.0292,-0.008 0.0585,-0.015 0.0881,-0.0209 0.0151,-0.004 0.0303,-0.007 0.0454,-0.011 a 90.296394,38.174088 -180 0 0 26.36659,-26.95775 90.296394,38.174088 -180 0 0 -26.44735,-26.99338 z"
                   transform="rotate(-21.438752)" />
                <ellipse
                   style="fill:#5599ff;fill-opacity:1;fill-rule:evenodd;stroke-width:0.269276"
                   id="ellipse47"
                   cx="218.03276"
                   cy="192.72194"
                   rx="95.435211"
                   ry="47.334332" />
                <ellipse
                   style="fill:#5599ff;fill-opacity:1;fill-rule:evenodd;stroke-width:0.290061"
                   id="ellipse48"
                   cx="216.9472"
                   cy="201.13754"
                   rx="108.64931"
                   ry="43.862137"
                   transform="rotate(-5.1680939)" />
                <ellipse
                   style="fill:#5599ff;fill-opacity:1;fill-rule:evenodd;stroke-width:0.35471"
                   id="ellipse49"
                   cx="-20.543402"
                   cy="341.30542"
                   rx="27.096382"
                   ry="6.5014243"
                   transform="matrix(0.50697913,-0.86195833,0.91807668,0.39640283,0,0)" />
                <ellipse
                   style="fill:#5599ff;fill-opacity:1;fill-rule:evenodd;stroke-width:0.409748"
                   id="ellipse50"
                   cx="311.75296"
                   cy="196.05681"
                   rx="20.536083"
                   ry="74.366379"
                   transform="matrix(1,0,-0.54366528,0.83930213,0,0)" />
              </g>
              <ellipse
                 style="fill:#000000;fill-opacity:1;fill-rule:evenodd;stroke-width:0.192548"
                 id="ellipse51"
                 cx="197.17085"
                 cy="184.33641"
                 rx="6.8611565"
                 ry="3.3354895"
                 transform="matrix(0.95664021,0.29127222,-0.10764009,0.99418993,0,0)"
                 clip-path="url(#clipPath64)" />
              <path
                 style="fill:#ffffff;fill-opacity:1;fill-rule:evenodd;stroke-width:0.264583"
                 d="m 128.84559,203.64157 c 4.19196,1.15948 11.9243,3.11187 21.63256,5.69353 9.70827,2.58166 21.392,5.79246 33.8788,8.33441 12.48681,2.54195 25.77594,4.41491 40.00198,5.17302 14.22604,0.75812 29.38813,0.40136 43.88173,-0.89192 14.49359,-1.29329 28.31786,-3.52301 38.17347,-6.10956 9.85561,-2.58655 15.74206,-5.52978 14.93878,-4.40278 -0.80328,1.127 -8.29595,6.32396 -19.42818,11.58107 -11.13223,5.25711 -25.90267,10.57372 -41.09265,13.72957 -15.18999,3.15584 -30.79771,4.15055 -45.49713,3.76283 -14.69943,-0.38772 -28.48881,-2.15782 -41.49286,-5.50723 -13.00405,-3.34942 -25.22122,-8.27776 -33.50563,-14.08366 -8.2844,-5.80591 -12.63504,-12.48868 -14.4847,-15.64699 -1.84966,-3.15831 -1.19813,-2.79177 2.99383,-1.63229 z"
                 id="path51"
                 transform="matrix(1.0116337,-0.02303309,0.22962823,0.98327184,-58.122226,46.685979)" />
              <path
                 style="fill:#ffaaee;fill-opacity:1;fill-rule:evenodd;stroke-width:0.264583"
                 d="m 141.87835,220.13196 c 1.75932,-0.38561 5.27796,-1.15681 9.08585,-1.63882 3.80788,-0.48201 7.90485,-0.67481 11.25482,-0.6266 3.34996,0.0482 5.95273,0.3374 8.24228,0.84351 2.28955,0.50611 4.26573,1.2291 5.42255,1.90392 1.15681,0.67481 1.49421,1.30141 0.96399,2.14493 -0.53022,0.84352 -1.92801,1.90391 -4.45857,3.37405 -2.53057,1.47013 -6.19374,3.34992 -8.26606,4.26024 -2.07232,0.91033 -2.55368,0.85117 -3.61959,0.52627 -1.06592,-0.32489 -2.71626,-0.91548 -4.74103,-1.77763 -2.02478,-0.86214 -4.42379,-1.99576 -6.70724,-3.16448 -2.28345,-1.16872 -4.45114,-2.37244 -5.92191,-3.21111 -1.47077,-0.83867 -2.24443,-1.31217 -2.63061,-1.6261 -0.38619,-0.31393 -0.38485,-0.46825 -0.38419,-0.54542 6.7e-4,-0.0772 3.9e-4,-0.0772 1.75971,-0.46276 z"
                 id="path52"
                 transform="matrix(1.0116337,-0.02303309,0.22962823,0.98327184,-58.122226,46.685979)" />
              <path
                 style="fill:#5599ff;fill-opacity:1;fill-rule:evenodd;stroke-width:0.264583"
                 d="m 255.49473,222.68297 c 1.2352,3.07214 2.94546,6.30264 5.63758,9.75488 2.69212,3.45224 6.36596,7.12608 11.08508,10.54664 4.71912,3.42056 10.48326,6.58767 15.4874,8.61465 5.00414,2.02699 9.24806,2.91378 12.63695,3.35718 3.38889,0.4434 5.92257,0.4434 6.74602,-0.91851 0.82346,-1.3619 -0.0633,-4.0856 -2.3754,-6.65103 -2.31208,-2.56543 -6.04924,-4.97241 -8.45629,-7.75954 -2.40705,-2.78713 -3.48386,-5.95423 -4.1173,-9.18477 -0.63344,-3.23053 -0.82347,-6.52431 -0.85514,-8.58297 -0.0317,-2.05866 0.095,-2.88211 1.837,-5.70093 1.74196,-2.81882 5.09907,-7.6328 -1.36209,-8.36122 -6.46117,-0.72841 -22.74003,2.62871 -30.49956,5.76422 -7.75954,3.13552 -6.99944,6.04925 -5.76425,9.1214 z"
                 id="path54"
                 transform="matrix(1.0116337,-0.02303309,0.22962823,0.98327184,-58.122226,46.685979)" />
              <path
                 style="fill:#ffffff;fill-opacity:1;fill-rule:evenodd;stroke:#000000;stroke-width:0.412091;stroke-dasharray:none;stroke-opacity:1"
                 d="m 135.97955,260.24676 c 0.54147,0.23808 1.62435,0.71419 2.41138,1.0486 0.78703,0.33442 1.27804,0.52706 1.34394,0.1359 0.0659,-0.39115 -0.29336,-1.36609 -0.36517,-1.88482 -0.0718,-0.51873 0.14382,-0.58126 0.65957,-0.26669 0.51574,0.31457 1.33157,1.00619 1.97289,1.49113 0.64133,0.48494 1.1081,0.76314 1.31233,0.60994 0.20424,-0.15321 0.14595,-0.7378 0.10662,-1.33971 -0.0393,-0.6019 -0.0597,-1.22107 0.0438,-1.54346 0.10348,-0.32239 0.3308,-0.34799 0.80551,0.01 0.47471,0.35797 1.19676,1.09945 1.71857,1.57873 0.52182,0.47928 0.84334,0.69632 1.04712,0.51595 0.20377,-0.18038 0.28981,-0.75817 0.32509,-1.2838 0.0353,-0.52564 0.0198,-0.99911 0.15989,-1.24704 0.14008,-0.24793 0.43569,-0.27029 0.93364,0.0806 0.49795,0.35088 1.1982,1.07496 1.76538,1.5382 0.56718,0.46324 1.00125,0.66561 1.20774,0.20262 0.20649,-0.46299 0.18539,-1.59131 0.38557,-2.12732 0.20018,-0.53601 0.62162,-0.47969 1.09174,-0.0574 0.47011,0.42229 0.98888,1.21051 1.44193,1.63198 0.45304,0.42147 0.84033,0.47617 0.98437,0.0284 0.14405,-0.44777 0.0448,-1.39796 0.0806,-1.86903 0.0358,-0.47106 0.20649,-0.463 0.58587,-0.009 0.37938,0.45435 0.96737,1.35494 1.35844,1.84621 0.39107,0.49127 0.58519,0.57319 0.72386,0.16154 0.13866,-0.41166 0.22187,-1.31684 0.34884,-1.76541 0.12697,-0.44857 0.2977,-0.44051 0.49135,-0.41316 0.19365,0.0273 0.41021,0.074 0.74913,0.45366 0.33891,0.37971 0.80015,1.09248 1.19074,1.52917 0.3906,0.4367 0.71055,0.59731 0.80969,0.22015 0.0991,-0.37716 -0.0225,-1.29204 0.0874,-1.74141 0.1099,-0.44936 0.45135,-0.4332 0.73621,-0.38335 0.28486,0.0498 0.51314,0.1334 0.75008,0.56282 0.23694,0.42943 0.48255,1.20472 0.69704,1.66945 0.21449,0.46473 0.39786,0.61887 0.52577,0.27944 0.12791,-0.33943 0.20036,-1.1724 0.37317,-1.58242 0.17282,-0.41003 0.44598,-0.39709 0.68547,-0.3312 0.23949,0.0659 0.44531,0.18473 0.68716,0.52347 0.24185,0.33875 0.51971,0.89737 0.78987,1.21927 0.27015,0.3219 0.53255,0.40705 0.75262,0.19927 0.22006,-0.20778 0.39777,-0.70848 0.61785,-0.91625 0.22007,-0.20778 0.48247,-0.12263 0.71262,0.17919 0.23015,0.30183 0.42803,0.82031 0.63574,1.15743 0.2077,0.33713 0.4252,0.49287 0.61159,0.33806 0.18639,-0.15482 0.34166,-0.62023 0.36222,-0.87382 0.0206,-0.25359 -0.0935,-0.29535 -1.13153,-0.59905 -1.03798,-0.3037 -2.99971,-0.8693 -4.6357,-1.25586 -1.636,-0.38655 -2.94615,-0.59403 -4.15859,-0.6522 -1.21244,-0.0582 -2.32707,0.0329 -3.62418,0.0261 -1.29711,-0.007 -2.77653,-0.11168 -4.28947,-0.10978 -1.51293,0.002 -3.05928,0.11052 -4.49739,0.24246 -1.4381,0.13194 -2.76787,0.28718 -4.75582,0.64765 -1.98794,0.36048 -4.63392,0.92616 -6.10427,1.27477 -1.47036,0.3486 -1.76503,0.48011 -1.91237,0.54586 -0.14734,0.0658 -0.14733,0.0658 0.39415,0.30387 z"
                 id="path55"
                 transform="matrix(1.0572671,-0.0073978,0.04950826,1.2158892,-22.142318,-54.801337)" />
              <path
                 style="fill:#ffffff;fill-opacity:1;fill-rule:evenodd;stroke:#000000;stroke-width:0.467299;stroke-dasharray:none;stroke-opacity:1"
                 d="m 157.51901,269.87124 c -0.0371,-0.24793 -0.11144,-0.74379 -0.11132,-1.13541 1.2e-4,-0.39161 0.0747,-0.67903 0.32653,-0.70066 0.25187,-0.0216 0.68105,0.22246 1.05469,0.51988 0.37365,0.29742 0.69173,0.64816 0.95915,0.80628 0.26742,0.15812 0.48417,0.12363 0.71173,0.12321 0.22756,-4.1e-4 0.46586,0.0332 0.35401,-0.3525 -0.11186,-0.38574 -0.5739,-1.19087 -0.77757,-1.67047 -0.20367,-0.4796 -0.14899,-0.63367 0.2091,-0.516 0.35809,0.11766 1.01957,0.50703 1.52649,0.83314 0.50692,0.32612 0.85925,0.58896 1.16754,0.61474 0.30829,0.0258 0.57251,-0.1855 0.41085,-0.66312 -0.16166,-0.47762 -0.74919,-1.22154 -0.91356,-1.60975 -0.16438,-0.38822 0.0944,-0.42072 0.54849,-0.13066 0.45411,0.29005 1.10351,0.90263 1.64467,1.14084 0.54117,0.23822 0.97407,0.10207 0.98081,-0.334 0.007,-0.43608 -0.41269,-1.17204 -0.58816,-1.62793 -0.17547,-0.45588 -0.10697,-0.63168 0.13468,-0.62024 0.24165,0.0114 0.65644,0.2101 1.04002,0.44086 0.38357,0.23076 0.73589,0.4936 1.07959,0.56582 0.3437,0.0722 0.67874,-0.0462 0.63324,-0.45117 -0.0455,-0.40498 -0.47155,-1.0965 -0.69625,-1.5771 -0.22469,-0.48059 -0.24803,-0.75026 0.12115,-0.56493 0.36918,0.18533 1.13084,0.8256 1.77016,1.07965 0.63933,0.25406 1.15629,0.12188 1.04054,-0.30881 -0.11575,-0.43068 -0.86417,-1.15984 -1.20414,-1.61232 -0.33997,-0.45249 -0.27147,-0.62828 0.18506,-0.4612 0.45654,0.16708 1.3011,0.67702 1.91193,0.87378 0.61082,0.19675 0.98789,0.0803 0.63054,0.45505 -0.35735,0.37472 -1.44908,1.24055 -2.64261,2.07922 -1.19352,0.83866 -2.48876,1.65011 -3.63479,2.31199 -1.14603,0.66188 -2.14279,1.17417 -3.15038,1.65238 -1.00759,0.47821 -2.02594,0.92232 -2.80859,1.09788 -0.78265,0.17555 -1.32955,0.0825 -1.603,0.036 -0.27346,-0.0465 -0.27345,-0.0465 -0.3106,-0.29447 z"
                 id="path56"
                 transform="translate(0.27374645,0.08009514)" />
              <path
                 style="fill:none;fill-opacity:1;fill-rule:evenodd;stroke:#000000;stroke-width:1.8692;stroke-dasharray:none;stroke-opacity:1"
                 d="m 135.27181,260.46948 c 0.17446,-0.46555 1.39903,-0.89106 2.96265,-1.29085 1.56362,-0.3998 3.46623,-0.77387 5.59924,-1.09836 2.13302,-0.32449 4.4963,-0.59939 6.56103,-0.7724 2.06474,-0.17301 3.83081,-0.24412 5.92479,-0.18367 2.09398,0.0604 4.51575,0.25243 6.41745,0.46816 1.9017,0.21573 3.28323,0.45518 4.64478,0.82906 1.36156,0.37389 2.70305,0.88218 3.49048,1.33525 0.78744,0.45306 1.02079,0.85088 1.11459,1.20343 0.0938,0.35255 0.0481,0.65979 -0.37989,1.20038 -0.42795,0.54059 -1.23807,1.31447 -2.12134,2.02688 -0.88328,0.71242 -1.83965,1.36335 -2.72442,1.90164 -0.88477,0.5383 -1.69788,0.96394 -2.52582,1.42757 -0.82794,0.46364 -1.67065,0.96523 -2.64672,1.44119 -0.97606,0.47595 -2.08543,0.92625 -2.79473,1.11507 -0.7093,0.18882 -1.01848,0.11617 -1.85243,-0.1167 -0.83395,-0.23288 -2.19261,-0.62595 -3.86437,-1.18857 -1.67175,-0.56262 -3.65651,-1.29475 -5.55676,-2.04224 -1.90024,-0.74749 -3.71586,-1.5103 -5.48041,-2.30938 -1.76455,-0.79909 -3.47794,-1.6344 -4.77246,-2.30487 -1.29452,-0.67046 -2.17013,-1.17604 -1.99566,-1.64159 z"
                 id="path58"
                 transform="translate(0.5788923,-0.2286855)" />
              <path
                 style="fill:none;fill-opacity:1;fill-rule:evenodd;stroke:#000000;stroke-width:1.8692;stroke-dasharray:none;stroke-opacity:1"
                 d="m 115.06869,243.53663 c -0.23579,-0.70502 0.34166,-0.56361 4.45171,0.3642 4.11004,0.92781 11.75232,2.64195 18.1711,4.07718 6.41878,1.43523 11.61367,2.59146 16.74241,3.7087 5.12874,1.11724 10.19103,2.19541 15.95479,3.25213 5.76377,1.05672 12.22866,2.09191 18.74368,2.96544 6.51501,0.87352 13.07976,1.58532 18.62166,2.04819 5.5419,0.46286 10.06063,0.67676 14.78935,0.75477 4.72872,0.078 9.66714,0.0201 14.26876,-0.0902 4.60162,-0.11031 8.86616,-0.27302 11.28313,-0.41382 2.41697,-0.1408 2.98626,-0.25968 3.29927,-0.33601 0.31301,-0.0763 0.36979,-0.11012 0.70512,0.4162 0.33532,0.52632 0.94923,1.61267 1.86682,2.85927 0.9176,1.2466 2.1388,2.65337 3.37621,3.95156 1.23741,1.29819 2.49096,2.48774 3.48542,3.39161 0.99447,0.90386 1.72981,1.52201 2.17768,1.87134 0.44787,0.34933 0.60825,0.42984 -6.8e-4,0.58331 -0.60894,0.15347 -1.98715,0.3799 -3.74642,0.73414 -1.75927,0.35423 -3.89949,0.83626 -6.00602,1.2652 -2.10652,0.42895 -4.17922,0.80479 -6.95331,1.20214 -2.77409,0.39734 -6.24939,0.81617 -10.10771,1.14396 -3.85831,0.32778 -8.09941,0.56452 -11.5087,0.71304 -3.40929,0.14851 -5.98659,0.20881 -8.87254,0.1998 -2.88596,-0.009 -6.0804,-0.0873 -9.71458,-0.22288 -3.63418,-0.13557 -7.70789,-0.32841 -12.54848,-0.81277 -4.84059,-0.48436 -10.44778,-1.26021 -16.29173,-2.35719 -5.84395,-1.09698 -11.92433,-2.51502 -16.30888,-3.68874 -4.38455,-1.17372 -7.07305,-2.10307 -10.78117,-3.53646 -3.70812,-1.43338 -8.43553,-3.37066 -11.77978,-4.93268 -3.34425,-1.56201 -5.30497,-2.74858 -7.43927,-4.21684 -2.1343,-1.46827 -4.44207,-3.21814 -6.72834,-5.11288 -2.28626,-1.89474 -4.5509,-3.93423 -6.20778,-5.72974 -1.65688,-1.79552 -2.70592,-3.34694 -2.94172,-4.05197 z"
                 id="path59" />
              <path
                 style="fill:none;fill-opacity:1;fill-rule:evenodd;stroke:#000000;stroke-width:1.8692;stroke-dasharray:none;stroke-opacity:1"
                 d="m 115.47177,244.33645 c -0.4732,-0.6422 -1.41962,-1.92661 -2.25351,-3.38801 -0.83389,-1.46139 -1.55521,-3.0997 -2.16512,-4.82394 -0.6099,-1.72423 -1.10835,-3.53427 -1.32625,-5.48678 -0.2179,-1.9525 -0.15523,-4.04729 0.26172,-6.17869 0.41695,-2.1314 1.18814,-4.29917 2.07384,-6.25268 0.88571,-1.9535 1.88586,-3.69261 3.4319,-5.6247 1.54604,-1.93208 3.63787,-4.05702 5.99285,-6.09665 2.35498,-2.03963 4.97297,-3.99382 7.96174,-5.94876 2.98878,-1.95493 6.34817,-3.91049 9.85674,-5.74101 3.50857,-1.83051 7.16612,-3.53587 10.45031,-4.93172 3.28418,-1.39586 6.19481,-2.48211 8.93924,-3.42327 2.74443,-0.94116 5.32248,-1.73715 8.34736,-2.51093 3.02488,-0.77379 6.49621,-1.52527 8.39502,-1.96111 1.89881,-0.43583 2.22466,-0.55591 2.99247,-1.72838 0.76781,-1.17246 1.97748,-3.39715 3.51041,-6.08863 1.53292,-2.69148 3.38897,-5.84949 5.60749,-9.05056 2.21852,-3.20107 4.79939,-6.44502 7.19241,-9.27718 2.39301,-2.83216 4.59803,-5.25237 6.98469,-7.43454 2.38666,-2.18217 4.95481,-4.12617 7.13488,-5.2853 2.18006,-1.15913 3.97192,-1.53333 5.51736,-1.34541 1.54544,0.18792 2.84438,0.93794 3.92149,2.32777 1.0771,1.38983 1.93232,3.41938 2.35961,5.77301 0.42728,2.35363 0.42662,5.03119 0.23484,7.99925 -0.19179,2.96805 -0.57465,6.22633 -1.17615,9.07558 -0.6015,2.84925 -1.42155,5.2891 -1.79375,6.65405 -0.3722,1.36495 -0.29653,1.65486 0.55757,1.7248 0.85409,0.0699 2.48646,-0.0801 5.7072,-0.27083 3.22073,-0.19073 8.02957,-0.42211 12.51727,-0.43918 4.4877,-0.0171 8.654,0.18014 13.15599,0.43151 4.502,0.25136 9.3394,0.55685 13.5078,0.98369 4.16841,0.42684 7.66758,0.975 10.4041,1.57558 2.73652,0.60059 4.71022,1.25356 5.82367,1.30626 1.11346,0.0527 1.36654,-0.49485 1.86993,-1.47761 0.5034,-0.98276 1.25706,-2.40064 2.22626,-3.80835 0.9692,-1.40772 2.15386,-2.80519 3.29232,-4.01363 1.13846,-1.20844 2.23065,-2.22778 3.0997,-2.64212 0.86904,-0.41434 1.51492,-0.22366 2.04306,0.11745 0.52814,0.34111 0.93857,0.83264 1.24261,1.47651 0.30404,0.64387 0.50168,1.44006 0.62469,2.14421 0.123,0.70415 0.17137,1.31623 0.19253,1.98605 0.0212,0.66983 0.0151,1.39736 -0.0395,2.2013 -0.0546,0.80394 -0.15779,1.68424 -0.27919,2.5932 -0.12139,0.90897 -0.261,1.84656 -0.34244,2.3935 -0.0814,0.54693 -0.1047,0.70319 0.32302,0.70377 0.42773,5.8e-4 1.30643,-0.15453 2.30548,-0.27445 0.99905,-0.11991 2.11837,-0.20462 3.56096,-0.27403 1.4426,-0.0694 3.20835,-0.12352 4.624,-0.10569 1.41564,0.0178 2.48108,0.10761 3.16663,0.0319 0.68555,-0.0757 0.99117,-0.31699 1.54336,-0.87116 0.55219,-0.55416 1.3509,-1.4212 2.32118,-2.37851 0.97028,-0.95731 2.11206,-2.00482 3.65427,-3.36782 1.5422,-1.363 3.48473,-3.04141 5.72449,-4.87301 2.23975,-1.8316 4.77658,-3.81627 7.35487,-5.64168 2.5783,-1.8254 5.1979,-3.49143 8.34979,-5.17166 3.1519,-1.68022 6.83591,-3.37454 9.65854,-4.34251 2.82263,-0.96797 4.78371,-1.20954 6.14975,-1.23339 1.36604,-0.0239 2.13698,0.17 2.82508,0.38945 0.6881,0.21945 1.29333,0.46448 1.89693,0.87665 0.6036,0.41216 1.20554,0.99144 1.64571,1.72044 0.44017,0.729 0.71853,1.60769 0.9019,2.53109 0.18336,0.92339 0.27172,1.89143 0.23282,3.08954 -0.0389,1.19811 -0.20505,2.62621 -0.54514,4.22315 -0.34009,1.59695 -0.85411,3.36265 -1.57561,5.33497 -0.72149,1.97232 -1.65043,4.15113 -3.02418,6.84992 -1.37374,2.69879 -3.19221,5.91738 -4.71233,8.41252 -1.52013,2.49513 -2.74182,4.26668 -3.72067,5.65634 -0.97885,1.38966 -1.7148,2.39737 -2.22004,3.04227 -0.50524,0.64491 -0.77975,0.92698 -0.84475,1.23864 -0.065,0.31165 0.0795,0.6529 0.5691,1.04983 0.48961,0.39693 1.32432,0.84953 2.71838,1.57451 1.39406,0.72498 3.34737,1.72229 5.65715,3.01191 2.30977,1.28962 4.97585,2.87146 7.12304,4.22222 2.1472,1.35076 3.77539,2.47038 5.43819,3.67036 1.66279,1.19998 3.36006,2.48023 4.95606,3.78524 1.59599,1.30501 3.09061,2.63469 4.21433,3.7698 1.12373,1.13511 1.87648,2.07559 2.38446,2.81763 0.50798,0.74205 0.77115,1.28562 0.96044,1.82571 0.18929,0.54008 0.30469,1.07665 0.28738,1.56761 -0.0173,0.49096 -0.16731,0.93629 -0.5329,1.36159 -0.36559,0.42529 -0.94675,0.83055 -2.02446,1.1041 -1.07772,0.27355 -2.65197,0.41541 -5.42775,0.0381 -2.77579,-0.3773 -6.75293,-1.27371 -10.65835,-2.4028 -3.90542,-1.1291 -7.73888,-2.4908 -10.37856,-3.50096 -2.63969,-1.01017 -4.08544,-1.66872 -4.83869,-1.95026 -0.75325,-0.28154 -0.81396,-0.18607 -1.19496,0.59259 -0.381,0.77866 -1.08227,2.24044 -1.94852,3.84199 -0.86625,1.60155 -1.89742,3.34275 -3.42453,5.38513 -1.52712,2.04237 -3.55008,4.38579 -5.73692,6.64282 -2.18685,2.25702 -4.53747,4.42755 -7.25022,6.7187 -2.71274,2.29115 -5.78746,4.7028 -8.38509,6.78301 -2.59763,2.08022 -4.71802,3.82889 -6.90149,5.40742 -2.18348,1.57854 -4.42989,2.98684 -6.83653,4.37777 -2.40664,1.39092 -4.97337,2.7644 -7.19836,3.80984 -2.225,1.04544 -4.1081,1.76279 -4.9004,2.30558 -0.7923,0.54279 -0.49372,0.911 -0.19336,1.48585 0.30037,0.57486 0.60251,1.35632 1.02573,2.26156 0.42322,0.90524 0.96751,1.93421 1.72259,3.1404 0.75508,1.20618 1.72092,2.58951 2.67183,3.66727 0.95092,1.07775 1.88684,1.84986 2.7698,2.54081 0.88295,0.69095 1.71287,1.30069 2.56419,1.89178 0.85132,0.5911 1.72399,1.16351 2.53495,1.71335 0.81096,0.54984 1.56016,1.07707 2.21968,1.5509 0.65952,0.47382 1.22933,0.89422 1.82155,1.41403 0.59222,0.51982 1.20683,1.13903 1.76313,1.77518 0.55631,0.63615 1.05426,1.28918 1.44799,1.98647 0.39374,0.69729 0.68323,1.43882 0.70072,2.03962 0.0175,0.6008 -0.23702,1.06084 -0.77277,1.37972 -0.53575,0.31889 -1.35271,0.49659 -2.62667,0.49531 -1.27395,-0.001 -3.00482,-0.18157 -4.74233,-0.41136 -1.7375,-0.22978 -3.48152,-0.50905 -5.43006,-0.94555 -1.94854,-0.43649 -4.10145,-1.03017 -6.11033,-1.68589 -2.00888,-0.65573 -3.87361,-1.37345 -6.14074,-2.35615 -2.26712,-0.98269 -4.93647,-2.23029 -7.31328,-3.44439 -2.3768,-1.2141 -4.46093,-2.39464 -6.31373,-3.50526 -1.85279,-1.11061 -3.47414,-2.15122 -4.76207,-3.05805 -1.28792,-0.90683 -2.24233,-1.67983 -2.96145,-2.28434 -0.71911,-0.60451 -1.20289,-1.04048 -1.82307,-1.59113 -0.62019,-0.55065 -1.37672,-1.21592 -2.2984,-2.11525 -0.92168,-0.89934 -2.00845,-2.03268 -3.0712,-3.23376 -1.06275,-1.20107 -2.10143,-2.46982 -2.84866,-3.47891 -0.74722,-1.0091 -1.20294,-1.75849 -1.4804,-2.17489 -0.27747,-0.41639 -0.37664,-0.49976 -0.98857,-0.45004 -0.61193,0.0497 -1.73656,0.23253 -3.34171,0.3631 -1.60516,0.13056 -3.69073,0.20887 -6.81338,0.28727 -3.12265,0.0784 -7.28216,0.1569 -11.72544,0.17278 -4.44328,0.0159 -9.17006,-0.0308 -12.82378,-0.16445 -3.65373,-0.13361 -6.23422,-0.35412 -9.39395,-0.65123 -3.15973,-0.2971 -6.89851,-0.67079 -10.50546,-1.08743 -3.60694,-0.41663 -7.08184,-0.87619 -10.10722,-1.2948 -3.02537,-0.41861 -5.60105,-0.79626 -9.17259,-1.38826 -3.57155,-0.592 -8.13872,-1.39832 -12.66985,-2.29147 -4.53112,-0.89315 -9.02594,-1.87308 -15.22299,-3.25819 -6.19706,-1.38511 -14.09595,-3.17531 -19.04732,-4.27523 -4.95138,-1.09991 -6.955,-1.50949 -8.53968,-1.8599 -1.58468,-0.35041 -2.75032,-0.64164 -3.65664,-0.83207 -0.90632,-0.19044 -1.55329,-0.28008 -2,-0.34057 -0.44671,-0.0605 -0.69314,-0.0918 -0.8003,-0.028 -0.10715,0.0638 -0.075,0.22268 0.0494,0.53411 0.12437,0.31144 0.34096,0.77541 0.44925,1.0074 0.1083,0.23199 0.1078,0.23198 -0.36541,-0.41022 z"
                 id="path60" />
              <path
                 style="fill:none;fill-opacity:1;fill-rule:evenodd;stroke:#000000;stroke-width:1.8692;stroke-dasharray:none;stroke-opacity:1"
                 d="m 289.2435,263.72195 c -0.17802,-0.3035 -0.46853,-1.16309 -0.7817,-2.15165 -0.31317,-0.98855 -0.64898,-2.10601 -0.87903,-3.09063 -0.23006,-0.98461 -0.35434,-1.83633 -0.3927,-2.35943 -0.0384,-0.52311 0.009,-0.71756 0.37682,-0.9067 0.36763,-0.18915 1.05531,-0.37298 2.10585,-0.58881 1.05053,-0.21583 2.46383,-0.46366 3.78775,-0.7354 1.32392,-0.27175 2.55834,-0.56738 3.81102,-0.89168 1.25268,-0.32429 2.52355,-0.67722 3.72953,-1.06273 1.20599,-0.38551 2.34706,-0.80359 3.77078,-1.27716 1.42372,-0.47356 3.12999,-1.00258 4.44895,-1.49094 1.31896,-0.48836 2.25053,-0.93603 3.21351,-1.31338 0.96297,-0.37734 1.95728,-0.68435 2.50646,-0.87474 0.54918,-0.1904 0.65313,-0.26414 0.66629,-0.16516 0.0132,0.099 -0.0645,0.37069 -0.46993,0.81378 -0.40544,0.44308 -1.13864,1.05751 -2.13473,1.87589 -0.9961,0.81838 -2.25503,1.84068 -3.62508,2.82824 -1.37004,0.98756 -2.8511,1.94031 -4.38449,2.90047 -1.53338,0.96017 -3.11894,1.92765 -4.74808,2.84393 -1.62914,0.91628 -3.30175,1.78129 -4.88282,2.56215 -1.58107,0.78085 -3.07053,1.47751 -4.0235,1.94385 -0.95296,0.46634 -1.3694,0.70234 -1.61039,0.94668 -0.24099,0.24433 -0.3065,0.49692 -0.48451,0.19342 z"
                 id="path61" />
            </g>
          </g>
        </g>
      </g>
    </g>
  </g>
</svg>
